<svg xmlns="http://www.w3.org/2000/svg" viewBox="0 0 900 675"><rect width="900" height="675" fill="#eef7ef"/><rect x="0" y="500" width="900" height="175" fill="#d9c694"/><path d="M450 520c-52-128-40-270 36-398" fill="none" stroke="#1d5c3a" stroke-width="18" stroke-linecap="round"/><path d="M443 335c-132-8-214-85-236-204 140 6 224 77 236 204Z" fill="#23734a"/><path d="M495 287c28-133 121-205 247-214-14 133-105 209-247 214Z" fill="#3f9b61"/><path d="M425 456c-116 5-196-57-225-160 120-5 203 53 225 160Z" fill="#2f854e"/><path d="M505 427c58-101 154-136 264-101-58 105-153 140-264 101Z" fill="#58a86b"/><path d="M323 544h254l-30 92H353z" fill="#965f35"/><path d="M340 526h220v38H340z" rx="14" fill="#b98145"/></svg>
