<svg xmlns="http://www.w3.org/2000/svg" viewBox="0 0 900 675"><rect width="900" height="675" fill="#f2f8ec"/><rect y="520" width="900" height="155" fill="#d9c694"/><path d="M450 540c-28-128-6-262 72-386" fill="none" stroke="#24633d" stroke-width="14" stroke-linecap="round"/><path d="M422 405c-98 4-169-49-194-138 103-7 174 45 194 138Z" fill="#347f4d"/><path d="M496 360c56-80 137-105 225-72-58 83-138 107-225 72Z" fill="#4f9f61"/><g fill="#d64f62"><circle cx="548" cy="154" r="38"/><circle cx="508" cy="198" r="38"/><circle cx="588" cy="198" r="38"/><circle cx="548" cy="235" r="38"/></g><circle cx="548" cy="198" r="27" fill="#e7b941"/><g fill="#f06f55"><circle cx="250" cy="270" r="28"/><circle cx="290" cy="270" r="28"/><circle cx="270" cy="235" r="28"/><circle cx="270" cy="305" r="28"/></g><circle cx="270" cy="270" r="18" fill="#f1c84b"/><path d="M337 555h226l-26 70H363z" fill="#8c6239"/><path d="M358 535h184v32H358z" rx="10" fill="#a87742"/></svg>
