<svg xmlns="http://www.w3.org/2000/svg" viewBox="0 0 900 675"><rect width="900" height="675" fill="#f2f7ed"/><rect y="510" width="900" height="165" fill="#d8c597"/><path d="M278 278h158l-24 220H302z" fill="#b77a42"/><path d="M260 250h194v50H260z" rx="14" fill="#cf9457"/><path d="M502 330h178l-28 168H530z" fill="#8e6b50"/><path d="M484 304h214v48H484z" rx="14" fill="#aa8468"/><path d="M356 250c-15-68 10-118 76-152 12 77-14 126-76 152Z" fill="#2f854e"/><path d="M356 250c-75-15-118-58-130-129 78 16 121 58 130 129Z" fill="#4a9c60"/><path d="M590 304c-13-61 14-106 74-134 7 67-20 112-74 134Z" fill="#256f42"/><path d="M590 304c-62-8-106-44-126-105 70 7 113 42 126 105Z" fill="#58a86b"/></svg>
