<svg xmlns="http://www.w3.org/2000/svg" viewBox="0 0 900 675"><rect width="900" height="675" fill="#eef8ec"/><rect y="510" width="900" height="165" fill="#d7c08a"/><path d="M450 540c-20-170 16-310 108-420" fill="none" stroke="#245f3c" stroke-width="15" stroke-linecap="round"/><path d="M448 292c-84-12-138-67-150-147 89 11 143 64 150 147Z" fill="#277345"/><path d="M493 240c39-78 107-113 190-99-39 82-108 116-190 99Z" fill="#61a95f"/><path d="M419 410c-87 10-151-33-180-110 92-12 155 30 180 110Z" fill="#3e8e50"/><path d="M497 382c56-62 123-77 196-45-57 66-125 81-196 45Z" fill="#6fb56b"/><circle cx="598" cy="128" r="34" fill="#d9b45f"/><path d="M337 555h226l-26 70H363z" fill="#8c6239"/><path d="M358 535h184v32H358z" rx="10" fill="#a87742"/></svg>
